<svg width="356" height="444" viewBox="0 0 356 444" fill="none" xmlns="http://www.w3.org/2000/svg">
<g opacity="0.06">
<path d="M-57.7503 307.293L48.014 307.293L48.014 414.649C48.014 430.822 61.1099 444 77.3302 444L193.066 444C209.22 444 222.382 430.888 222.382 414.649L222.382 356.944L177.244 356.944L177.244 398.808L93.2181 398.808L93.2181 181.035L130.312 181.035L130.312 135.843L48.0805 135.843L48.0805 262.101L-41.8623 262.101L-41.8623 181.035L3.14228 181.035L3.14228 135.843L-57.6837 135.843C-73.8376 135.843 -87 148.955 -87 165.195L-87 277.942C-87 294.115 -73.9041 307.293 -57.7503 307.293Z" fill="#247CFF"/>
<path d="M93.1516 46.1918L177.178 46.1918L177.178 262.101L139.419 262.101L139.419 307.293L222.316 307.293L222.316 181.102L310.862 181.102L310.862 262.101L266.589 262.101L266.589 307.293L326.684 307.293C342.904 307.293 356 294.115 356 277.941L356 165.195C356 149.022 342.904 135.843 326.684 135.843L222.316 135.843L222.316 30.2848C222.316 14.1116 209.22 0.933398 192.999 0.933396L77.2637 0.933386C61.1098 0.933385 47.9475 14.045 47.9475 30.2848L47.9475 90.9843L93.0851 90.9843L93.0851 46.1918L93.1516 46.1918Z" fill="#247CFF"/>
</g>
</svg>
