<svg width="39" height="39" viewBox="0 0 39 39" fill="none" xmlns="http://www.w3.org/2000/svg">
<path d="M35.5114 12.7007H26.4338V3.48658C26.4338 2.09846 25.3098 0.967407 23.9177 0.967407H13.9843C12.5979 0.967407 11.4682 2.09275 11.4682 3.48658V8.43923H15.3423V4.84613H22.5541V23.5371H19.3704V27.4158H26.4281V16.5794H34.1477V23.5371H30.2851V27.4158H35.5057C36.8921 27.4158 38.0218 26.2905 38.0218 24.8967V15.2198C38.0218 13.8317 36.8978 12.7007 35.5114 12.7007Z" fill="#247CFF"/>
<path d="M22.5597 35.1104H15.3479V16.5794H18.5887V12.7007H11.4738V23.5314H3.87406V16.5794H7.67396V12.7007H2.51614C1.12399 12.7007 0 13.8317 0 15.2199V24.8967C0 26.2848 1.12399 27.4158 2.51614 27.4158H11.4738V36.4757C11.4738 37.8638 12.5978 38.9949 13.99 38.9949H23.9233C25.3098 38.9949 26.4395 37.8695 26.4395 36.4757V31.266H22.5654V35.1104H22.5597Z" fill="#247CFF"/>
</svg>
